<svg width="63" height="62" viewBox="0 0 63 62" fill="none" xmlns="http://www.w3.org/2000/svg">
<rect x="1" y="0.5" width="61" height="61" rx="30.5" stroke="url(#paint0_linear_121_1893)"/>
<rect x="1" y="0.5" width="61" height="61" rx="30.5" stroke="url(#paint1_linear_121_1893)"/>
<path d="M19.3937 26.1058C21.3853 28.0975 24.6145 28.0975 26.6061 26.1058C26.8509 25.8611 27.0656 25.5976 27.2502 25.3201C28.1639 26.6941 29.7261 27.5996 31.4999 27.5996C33.2739 27.5996 34.8364 26.6938 35.75 25.3196C35.9347 25.5973 36.1495 25.8609 36.3944 26.1059C38.3861 28.0975 41.6152 28.0975 43.6069 26.1059C45.5986 24.1142 45.5986 20.885 43.6069 18.8934L43.1094 18.3958C42.4718 17.7582 41.607 17.4 40.7052 17.4H22.2953C21.3936 17.4 20.5288 17.7582 19.8911 18.3958L19.3937 18.8933C17.402 20.885 17.402 24.1141 19.3937 26.1058Z" fill="#A685FA"/>
<path d="M19.5999 29.3548C22.0275 30.5591 24.9616 30.3947 27.2509 28.8615C28.4654 29.6741 29.9269 30.1496 31.4999 30.1496C33.073 30.1496 34.5347 29.674 35.7493 28.8612C38.0384 30.3946 40.9723 30.5592 43.3999 29.3552V42.05H43.8249C44.5291 42.05 45.0999 42.6208 45.0999 43.325C45.0999 44.0292 44.5291 44.6 43.8249 44.6H36.1749C35.4707 44.6 34.8999 44.0292 34.8999 43.325V37.375C34.8999 36.6708 34.3291 36.1 33.6249 36.1H29.3749C28.6707 36.1 28.0999 36.6708 28.0999 37.375V43.325C28.0999 44.0292 27.5291 44.6 26.8249 44.6H19.1749C18.4707 44.6 17.8999 44.0292 17.8999 43.325C17.8999 42.6208 18.4707 42.05 19.1749 42.05H19.5999V29.3548Z" fill="#A685FA"/>
<defs>
<linearGradient id="paint0_linear_121_1893" x1="-6.25" y1="3.5" x2="62.25" y2="62" gradientUnits="userSpaceOnUse">
<stop stop-color="#A685FA"/>
<stop offset="0.323723" stop-color="#A685FA" stop-opacity="0"/>
</linearGradient>
<linearGradient id="paint1_linear_121_1893" x1="74.75" y1="76" x2="2.75" y2="25" gradientUnits="userSpaceOnUse">
<stop stop-color="#A685FA"/>
<stop offset="0.576615" stop-color="#A685FA" stop-opacity="0"/>
</linearGradient>
</defs>
</svg>
