<svg width="63" height="62" viewBox="0 0 63 62" fill="none" xmlns="http://www.w3.org/2000/svg">
<rect x="1" y="0.5" width="61" height="61" rx="30.5" stroke="url(#paint0_linear_121_1909)"/>
<rect x="1" y="0.5" width="61" height="61" rx="30.5" stroke="url(#paint1_linear_121_1909)"/>
<path fill-rule="evenodd" clip-rule="evenodd" d="M16.2002 18.675C16.2002 17.9708 16.771 17.4 17.4752 17.4H35.3252C36.0294 17.4 36.6002 17.9708 36.6002 18.675C36.6002 19.3792 36.0294 19.95 35.3252 19.95H34.9002V43.325C34.9002 44.0292 34.3294 44.6 33.6252 44.6H31.0752C30.371 44.6 29.8002 44.0292 29.8002 43.325V39.075C29.8002 38.3708 29.2294 37.8 28.5252 37.8H24.2752C23.571 37.8 23.0002 38.3708 23.0002 39.075V43.325C23.0002 44.0292 22.4294 44.6 21.7252 44.6H17.4752C16.771 44.6 16.2002 44.0292 16.2002 43.325C16.2002 42.6208 16.771 42.05 17.4752 42.05H17.9002V19.95H17.4752C16.771 19.95 16.2002 19.3792 16.2002 18.675ZM21.3002 23.35C21.3002 22.8806 21.6808 22.5 22.1502 22.5H23.8502C24.3196 22.5 24.7002 22.8806 24.7002 23.35V25.05C24.7002 25.5194 24.3196 25.9 23.8502 25.9H22.1502C21.6808 25.9 21.3002 25.5194 21.3002 25.05V23.35ZM22.1502 29.3C21.6808 29.3 21.3002 29.6806 21.3002 30.15V31.85C21.3002 32.3194 21.6808 32.7 22.1502 32.7H23.8502C24.3196 32.7 24.7002 32.3194 24.7002 31.85V30.15C24.7002 29.6806 24.3196 29.3 23.8502 29.3H22.1502ZM28.1002 23.35C28.1002 22.8806 28.4808 22.5 28.9502 22.5H30.6502C31.1196 22.5 31.5002 22.8806 31.5002 23.35V25.05C31.5002 25.5194 31.1196 25.9 30.6502 25.9H28.9502C28.4808 25.9 28.1002 25.5194 28.1002 25.05V23.35ZM28.9502 29.3C28.4808 29.3 28.1002 29.6806 28.1002 30.15V31.85C28.1002 32.3194 28.4808 32.7 28.9502 32.7H30.6502C31.1196 32.7 31.5002 32.3194 31.5002 31.85V30.15C31.5002 29.6806 31.1196 29.3 30.6502 29.3H28.9502Z" fill="#A685FA"/>
<path fill-rule="evenodd" clip-rule="evenodd" d="M38.7252 24.2C38.021 24.2 37.4502 24.7708 37.4502 25.475V42.9C37.4502 43.8389 38.2113 44.6 39.1502 44.6H45.5252C46.2294 44.6 46.8002 44.0292 46.8002 43.325C46.8002 42.6208 46.2294 42.05 45.5252 42.05H45.1002V26.75H45.5252C46.2294 26.75 46.8002 26.1792 46.8002 25.475C46.8002 24.7708 46.2294 24.2 45.5252 24.2H38.7252ZM39.5752 30.15C39.5752 29.6806 39.9558 29.3 40.4252 29.3H42.1252C42.5946 29.3 42.9752 29.6806 42.9752 30.15V31.85C42.9752 32.3194 42.5946 32.7 42.1252 32.7H40.4252C39.9558 32.7 39.5752 32.3194 39.5752 31.85V30.15ZM40.4252 36.1C39.9558 36.1 39.5752 36.4806 39.5752 36.95V38.65C39.5752 39.1194 39.9558 39.5 40.4252 39.5H42.1252C42.5946 39.5 42.9752 39.1194 42.9752 38.65V36.95C42.9752 36.4806 42.5946 36.1 42.1252 36.1H40.4252Z" fill="#A685FA"/>
<defs>
<linearGradient id="paint0_linear_121_1909" x1="-6.25" y1="3.5" x2="62.25" y2="62" gradientUnits="userSpaceOnUse">
<stop stop-color="#A685FA"/>
<stop offset="0.323723" stop-color="#A685FA" stop-opacity="0"/>
</linearGradient>
<linearGradient id="paint1_linear_121_1909" x1="74.75" y1="76" x2="2.75" y2="25" gradientUnits="userSpaceOnUse">
<stop stop-color="#A685FA"/>
<stop offset="0.576615" stop-color="#A685FA" stop-opacity="0"/>
</linearGradient>
</defs>
</svg>
